<svg
  xmlns="http://www.w3.org/2000/svg"
  version="1.1"
  xmlns:xlink="http://www.w3.org/1999/xlink"
  width="768px"
  height="768px"
>
  <svg
    width="768px"
    height="768px"
    viewBox="0 0 768 768"
    version="1.1"
    xmlns="http://www.w3.org/2000/svg"
    xmlns:xlink="http://www.w3.org/1999/xlink"
  >
    <title>Artboard</title>
    <g
      id="SvgjsG1018"
      stroke="none"
      stroke-width="1"
      fill="none"
      fill-rule="evenodd"
    >
      <path
        d="M258.744161,673.532662 C220.757598,658.556745 187.761971,637.340862 159.757278,609.885015 C131.731315,582.675001 109.640415,549.95668 94.87512,513.789548 C79.62504,476.904419 72,436.829975 72,393.566215 C72,341.982502 79.9023142,296.222756 95.7069425,256.286977 C111.788845,216.351199 133.97078,182.794052 162.252746,155.615536 C190.638366,128.268343 224.327386,107.031355 261.239629,93.2158823 C298.948918,79.0719608 339.292311,72 382.269809,72 C434.951904,72 481.118055,80.1812879 520.768263,96.5438638 C560.418471,112.90644 593.414098,135.092983 619.755146,163.103494 C645.823967,190.667688 665.804365,223.408333 678.398635,259.198961 C691.153247,294.974763 696.976005,332.414555 695.866908,371.518338 C694.480537,425.320706 674.410807,486.092796 651.875912,513.807986 C627.109489,544.267686 603.766423,555.08515 561.350365,555.08515 C539.879106,555.08515 518.908303,544.647246 498.437956,523.771439 L520.642336,488.757018 L553.379562,469.399451 C566.854015,479.647575 578.145985,482.494276 587.255474,477.939554 C600.919708,471.107472 612.130106,436.413978 615.180122,422.270056 C618.73393,406.280102 620.684502,389.975506 621.002879,373.598326 C621.834702,330.611898 615.457396,294.420099 601.870961,265.022929 C588.284526,235.625759 569.845793,211.91389 546.554762,193.887324 C524.028964,175.836615 498.164782,162.407064 470.442999,154.367543 C442.715581,146.047589 415.1268,141.887612 387.676656,141.887612 C348.85827,141.887612 314.337635,148.127577 284.114749,160.607508 C253.891863,172.810107 228.382638,190.143344 207.587075,212.60722 C187.068785,234.793763 171.541431,261.140284 161.005012,291.646781 C150.745868,321.875947 145.893569,355.155762 146.448118,391.486227 C147.557214,427.53936 154.073158,459.98718 165.995948,488.829687 C177.28032,516.727243 194.28181,541.951359 215.9053,562.877276 C237.610095,583.620856 263.386636,599.628298 291.601152,609.885015 C320.714941,620.700955 352.601472,626.108925 387.260744,626.108925 C406.669937,626.108925 425.940493,623.89027 445.072411,619.452962 C464.481604,615.292985 482.227152,609.330351 498.309054,601.565061 L522.015997,666.460701 C500.665885,676.444645 478.206676,683.793938 454.63837,688.508578 C431.262297,693.509483 407.422332,696.019474 383.517543,696 C338.321851,696 296.730724,688.508578 258.744161,673.532662 Z"
        id="SvgjsPath1017"
        fill="#0083FF"
        fill-rule="nonzero"
      ></path>
      <g
        id="SvgjsG1016"
        transform="translate(115.0733, 79.4049)"
        fill="#0083FF"
      >
        <path
          d="M329.828907,231.383849 L260.699401,110.602459 C251.63529,94.765511 234.795945,84.9961472 216.561535,84.9961472 L202.32856,84.9961472 C197.759942,84.9961472 194.291354,89.1141864 195.064554,93.6217527 L218.683383,231.383849 L146.044594,231.383849 L117.317307,191.126992 C112.543308,184.436292 104.83484,180.465281 96.6208666,180.465281 L77.9170684,180.465281 C74.6441326,180.465281 72.2041032,183.486025 72.8889188,186.689439 L90.5192033,269.169882 C90.542094,269.250079 90.5821529,269.322638 90.6349289,269.382467 C90.634293,269.446115 90.634293,269.509764 90.634293,269.572775 L90.6349289,269.760538 C90.5821529,269.821003 90.542094,269.892926 90.5192033,269.973759 L72.8889188,352.453566 C72.2041032,355.657617 74.6441326,358.677724 77.9170684,358.677724 L96.6208666,358.677724 C104.83484,358.677724 112.543308,354.706712 117.317307,348.016012 L146.042051,307.761702 L218.684019,307.761702 L195.064554,445.52889 C194.291354,450.036456 197.759942,454.154495 202.32856,454.154495 L216.561535,454.154495 C234.795945,454.154495 251.63529,444.385132 260.699401,428.548184 L329.83145,307.761702 L399.512242,307.761702 C415.470292,307.761702 431.243943,304.348885 445.777042,297.751748 L448.41584,296.553888 C458.994558,291.751631 465.788667,281.20003 465.788667,269.572775 C465.788667,257.946157 458.994558,247.394556 448.41584,242.592299 L445.777042,241.39444 C431.243943,234.797303 415.470292,231.383849 399.512242,231.383849 L329.828907,231.383849 Z"
          id="SvgjsPath1015"
          transform="translate(269.2809, 269.5753) rotate(-134) translate(-269.2809, -269.5753)"
        ></path>
      </g>
    </g>
  </svg><style>
  @media (prefers-color-scheme: light) {
    :root {
      filter: none;
    }
  }
  @media (prefers-color-scheme: dark) {
    :root {
      filter: none;
    }
  }
  </style>
</svg>
